{"title":"Scream Of The Banshee 2011 DVDRip XViD DTRG","uid":6564659,"size":827830697,"categoryP":"video","categoryS":"movies","magnet":"?xt=urn:btih:efc709a723ad7e59acc9d31b68c0f55a4d9fc5f7&amp;dn=Scream+Of+The+Banshee+2011+DVDRip+XViD+DTRG&amp;tr=udp%3A%2F%2Ftracker.openbittorrent.com%3A80&amp;tr=udp%3A%2F%2Fopen.demonii.com%3A1337&amp;tr=udp%3A%2F%2Ftracker.coppersurfer.tk%3A6969&amp;tr=udp%3A%2F%2Fexodus.desync.com%3A6969","seeders":2,"leechers":0,"uploader":"SAFCukO09","files":3,"time":1311626889,"description":"Format : AVI\nFormat/Info : Audio Video Interleave\nFile size : 789 MiB\nDuration : 1h 30mn\nOverall bit rate : 1 226 Kbps\nWriting library : VirtualDub build 32842/release\n\nVideo\nID : 0\nFormat : MPEG-4 Visual\nFormat profile : Advanced Simple@L5\nFormat settings, BVOP : 2\nFormat settings, QPel : No\nFormat settings, GMC : No warppoints\nFormat settings, Matrix : Default (H.263)\nMuxing mode : Packed bitstream\nCodec ID : XVID\nCodec ID/Hint : XviD\nDuration : 1h 30mn\nBit rate : 958 Kbps\nWidth : 624 pixels\nHeight : 352 pixels\nDisplay aspect ratio : 16:9\nFrame rate : 29.970 fps\nColor space : YUV\nChroma subsampling : 4:2:0\nBit depth : 8 bits\nScan type : Progressive\nCompression mode : Lossy\nBits/(Pixel*Frame) : 0.146\nStream size : 617 MiB (78%)\nWriting library : XviD 63\n\nAudio\nID : 1\nFormat : MPEG Audio\nFormat version : Version 1\nFormat profile : Layer 3\nMode : Joint stereo\nCodec ID : 55\nCodec ID/Hint : MP3\nDuration : 1h 30mn\nBit rate mode : Constant\nBit rate : 256 Kbps\nChannel(s) : 2 channels\nSampling rate : 48.0 KHz\nCompression mode : Lossy\nStream size : 165 MiB (21%)\nAlignment : Split accross interleaves\nInterleave, duration : 33 ms (1.00 video frame)\nInterleave, preload duration : 500 ms\nWriting library : LAME3.98 (beta)\n\n\n\n\n\n &lt;a href=&quot;\nhttp://www.imdb.com/title/tt1548628/&quot; rel=&quot;nofollow&quot; target=&quot;_NEW&quot;&gt;\nhttp://www.imdb.com/title/tt1548628/&lt;/a&gt;\n\n\n\n\n\n\n\n\nUsers: (279 votes) 9 reviews | Critics: 8 reviews\n\n\nAn archeology professor unearths a dangerous artifact, unwittingly releasing a creature that is able to kill with the power of its bone-splitting scream.\n\nDirector: Steven C. Miller\nWriters: Anthony C. Ferrante, Anthony C. Ferrante (story), and 1 more credit Ã‚Â»\nStars: Monica Acosta, Eric F. Adams and Marcelle Baer\n","torrent":{"xt":"urn:btih:efc709a723ad7e59acc9d31b68c0f55a4d9fc5f7","amp;dn":"Scream+Of+The+Banshee+2011+DVDRip+XViD+DTRG","amp;tr":["udp%3A%2F%2Ftracker.openbittorrent.com%3A80","udp%3A%2F%2Fopen.demonii.com%3A1337","udp%3A%2F%2Ftracker.coppersurfer.tk%3A6969","udp%3A%2F%2Fexodus.desync.com%3A6969"],"infoHash":"efc709a723ad7e59acc9d31b68c0f55a4d9fc5f7","infoHashBuffer":{"type":"Buffer","data":[239,199,9,167,35,173,126,89,172,201,211,27,104,192,245,90,77,159,197,247]},"announce":[],"urlList":[]}}